# xmcd
#
# Track frame offsets: 
#        150
#        10038
#        18695
#        31815
#        41038
#        52059
#        65976
#        76883
#        88514
#        106296
#
# Disc length: 1583 seconds
#
# Revision: 0
# Processed by: cddbd v1.5.2PL0 Copyright (c) Steve Scherf et al.
# Submitted via: ExactAudioCopy v1.0b1
#
DISCID=7c062d0a
DTITLE=Bob Wills and His Texas Playboys - The Lost Tiffany Transcription
DTITLE=s
DYEAR=2014
DGENRE=Western Swing
TTITLE0=I'm an Old Cowhand
TTITLE1=Long Eared Mule (instrumental)
TTITLE2=Put Another Chair at the Table
TTITLE3=I'm Thinking Tonight of My Blue Eyes
TTITLE4=Don't Fence Me In
TTITLE5=Don't Be Ashamed of Your Age
TTITLE6=Black and Blue Rag (instrumental)
TTITLE7=Have I Stayed Away Too Long
TTITLE8=Moonlight on the Ganges (instrumental)
TTITLE9=What Is Life Without Love
EXTD=
EXTT0=
EXTT1=
EXTT2=
EXTT3=
EXTT4=
EXTT5=
EXTT6=
EXTT7=
EXTT8=
EXTT9=
PLAYORDER=
